<?xml version="1.0" encoding="UTF-8" standalone="no"?>
<svg
   viewBox="0,0,256,256"
   width="50px"
   height="50px"
   fill-rule="nonzero"
   version="1.1"
   id="svg2"
   sodipodi:docname="linkedIn.svg"
   xml:space="preserve"
   inkscape:version="1.4 (e7c3feb1, 2024-10-09)"
   xmlns:inkscape="http://www.inkscape.org/namespaces/inkscape"
   xmlns:sodipodi="http://sodipodi.sourceforge.net/DTD/sodipodi-0.dtd"
   xmlns="http://www.w3.org/2000/svg"
   xmlns:svg="http://www.w3.org/2000/svg"><defs
     id="defs2" /><sodipodi:namedview
     id="namedview2"
     pagecolor="#ffffff"
     bordercolor="#000000"
     borderopacity="0.25"
     inkscape:showpageshadow="2"
     inkscape:pageopacity="0.0"
     inkscape:pagecheckerboard="0"
     inkscape:deskcolor="#d1d1d1"
     inkscape:zoom="14.269415"
     inkscape:cx="22.565747"
     inkscape:cy="35.565579"
     inkscape:window-width="1792"
     inkscape:window-height="1332"
     inkscape:window-x="169"
     inkscape:window-y="50"
     inkscape:window-maximized="0"
     inkscape:current-layer="svg2" /><path
     style="fill:#ffffff;stroke-width:0.0214949;fill-opacity:1"
     d="m 38.3612,240.57282 c -3.1404,-0.24556 -6.2701,-1.11986 -9.1265,-2.54948 -2.5051,-1.25382 -4.6231,-2.77465 -6.5561,-4.70766 -1.9331,-1.93303 -3.4539,-4.05101 -4.7077,-6.55613 -1.1853,-2.36815 -1.9738,-4.88922 -2.407,-7.69583 -0.1972,-1.2775 -0.2039,-4.25147 -0.2039,-91.01445 0,-73.066645 0.027,-89.877415 0.1432,-90.684285 0.857,-5.92628 3.1947,-10.71412 7.174,-14.6935 3.9794,-3.97939 8.7673,-6.31702 14.6935,-7.17402 0.8069,-0.11668 17.617701,-0.14323 90.6843,-0.14323 86.8562,0 89.7356,0.006 91.0145,0.20445 5.6256,0.87088 10.4011,3.25591 14.2519,7.11775 3.8718,3.8829 6.2498,8.64517 7.1147,14.24833 0.1972,1.2775 0.2039,4.25292 0.2039,91.069475 0,86.81655 -0.01,89.79198 -0.2039,91.06948 -0.4317,2.797 -1.2235,5.33479 -2.3964,7.68091 -1.2481,2.49663 -2.7869,4.63963 -4.7183,6.57105 -3.1869,3.18694 -7.1413,5.43971 -11.4848,6.54272 -0.7956,0.20203 -1.9913,0.45833 -2.6571,0.56957 -1.1675,0.19504 -4.3884,0.20276 -90.4641,0.21658 -49.089498,0.008 -89.748899,-0.0244 -90.354199,-0.0717 z m 45.177101,-85.45033 v -54.31152 h -16.8933 -16.8932 v 54.31152 54.31153 h 16.8932 16.8933 z m 53.707399,24.67955 c 7e-4,-19.40797 0.04,-30.08763 0.1145,-30.95261 0.6572,-7.65062 3.1562,-13.2069 7.5331,-16.74942 1.3743,-1.11234 3.5168,-2.25791 5.3926,-2.88339 3.0865,-1.02918 7.5022,-1.3687 10.8403,-0.83349 7.8665,1.26125 12.6088,6.72314 14.1866,16.33928 0.5045,3.07455 0.4878,1.99505 0.5276,34.08915 l 0.038,30.62246 h 16.7834 16.7834 l -0.036,-36.62039 c -0.039,-39.90436 8e-4,-37.27075 -0.6357,-41.68286 -1.0585,-7.33586 -3.474,-13.78056 -7.0621,-18.84266 -1.6802,-2.37036 -3.9677,-4.82292 -6.1422,-6.58534 -6.9091,-5.59982 -16.2352,-8.443929 -26.7393,-8.154439 -3.5129,0.0968 -5.8661,0.40864 -8.8593,1.17396 -4.6267,1.183 -8.5561,2.984659 -12.4076,5.689009 -3.5726,2.50854 -7.2812,6.26052 -9.5382,9.64977 l -0.7253,1.08917 -0.028,-7.16964 -0.028,-7.16963 h -16.1771 -16.1771 v 54.31152 54.31153 h 16.1779 16.1779 z M 68.304201,86.606991 c 6.0022,-0.58458 11.3268,-3.767886 14.7011,-8.788956 2.589,-3.85264 3.78,-8.6852 3.2782,-13.30163 -1.0268,-9.44784 -8.3471,-16.81304 -17.7357,-17.84452 -3.6698,-0.40319 -7.2683,0.24129 -10.7071,1.91762 -3.2865,1.60211 -5.8722,3.85373 -7.8888,6.86943 -4.714001,7.04967 -4.464301,16.42831 0.6178,23.20585 1.0778,1.43738 1.8562,2.27191 3.0669,3.28775 4.1695,3.49863 9.4219,5.165366 14.6676,4.654456 z"
     id="path2" /></svg>
