<?xml version="1.0" encoding="UTF-8" standalone="no"?>
<svg
   viewBox="0,0,256,256"
   width="50px"
   height="50px"
   fill-rule="nonzero"
   version="1.1"
   id="svg2"
   sodipodi:docname="whatsapp.svg"
   xml:space="preserve"
   inkscape:version="1.4 (e7c3feb1, 2024-10-09)"
   xmlns:inkscape="http://www.inkscape.org/namespaces/inkscape"
   xmlns:sodipodi="http://sodipodi.sourceforge.net/DTD/sodipodi-0.dtd"
   xmlns="http://www.w3.org/2000/svg"
   xmlns:svg="http://www.w3.org/2000/svg"><defs
     id="defs2" /><sodipodi:namedview
     id="namedview2"
     pagecolor="#ffffff"
     bordercolor="#000000"
     borderopacity="0.25"
     inkscape:showpageshadow="2"
     inkscape:pageopacity="0.0"
     inkscape:pagecheckerboard="0"
     inkscape:deskcolor="#d1d1d1"
     inkscape:zoom="14.269415"
     inkscape:cx="21.234227"
     inkscape:cy="36.511658"
     inkscape:window-width="2496"
     inkscape:window-height="1371"
     inkscape:window-x="61"
     inkscape:window-y="34"
     inkscape:window-maximized="0"
     inkscape:current-layer="svg2"
     showgrid="false" /><path
     style="fill:#ffffff;stroke-width:0.0898626;fill-opacity:1"
     d="m 15.518441,240.19112 c 0.1904,-0.59435 1.0164,-3.56516 1.8357,-6.60179 0.8192,-3.03664 4.2036,-15.41726 7.5209,-27.51249 3.3172,-12.09523 6.0313,-22.2732 6.0313,-22.61772 0,-0.34452 -1.5376,-3.76617 -3.4169,-7.60366 -20.1652001,-41.17715 -12.7668,-91.112228 18.4751,-124.696388 23.0025,-24.72709 53.097902,-37.30357 86.623099,-36.19869 41.2109,1.35817 78.5382,25.57017 96.5962,62.65625 7.3331,15.06029 10.6892,28.439448 11.3682,45.319498 1.2073,30.0165 -10.0582,59.60337 -31.0266,81.4856 -17.7121,18.48397 -39.9964,29.95749 -65.6654,33.80916 -7.6189,1.14323 -23.2351,1.16468 -30.5964,0.042 -11.9223,-1.81821 -22.727197,-5.05314 -32.498699,-9.72992 l -6.0431,-2.89233 -7.5298,1.96094 c -18.9131,4.92549 -50.401,13.17446 -51.1692,13.40494 -0.7165,0.21498 -0.7961,0.0849 -0.5044,-0.82544 z M 141.55954,219.33016 c 36.2041,-5.08639 66.7136,-31.67652 76.6028,-66.76208 2.4824,-8.80737 3.3749,-15.44386 3.3969,-25.26103 0.047,-20.91175 -5.9016,-39.159588 -18.182,-55.775698 -17.3577,-23.48608 -45.7984,-37.85394 -74.9304,-37.85394 -12.0064,0 -25.5504,2.81221 -36.577697,7.59479 -29.972202,12.99906 -50.474602,39.49923 -55.731202,72.034858 -1.1653,7.21257 -1.0697,21.00719 0.1976,28.50005 2.1349,12.62355 6.3852,23.92034 13.0318,34.6369 l 2.2665,3.65433 -4.6451,17.0126 c -2.5548,9.35692 -4.5684,17.08928 -4.4746,17.18302 0.094,0.0937 7.9854,-1.89669 17.5371,-4.42317 l 17.3666,-4.5936 3.0848,1.79291 c 13.036102,7.57674 27.465199,12.08768 41.962899,13.11874 4.0872,0.29068 14.1267,-0.16081 19.094,-0.85868 z m 12.1926,-35.21899 c -7.6691,-1.04829 -26.4915,-8.72941 -35.4275,-14.45736 -13.4107,-8.59635 -25.616297,-21.44012 -36.667099,-38.58446 -11.6121,-18.01518 -14.2819,-30.48327 -9.3501,-43.664708 2.3046,-6.1596 8.4728,-13.25494 12.892302,-14.83007 5.3291,-1.89931 11.9471,-0.71654 14.3765,2.56935 1.189797,1.6093 9.579097,23.87489 9.878697,26.218328 0.2898,2.26759 -0.9122,4.43286 -4.9526,8.92123 -3.7285,4.14194 -5.310797,6.91653 -4.893197,8.58023 0.1521,0.60617 1.336497,2.85741 2.631997,5.00278 7.8849,13.05731 19.1311,23.59638 32.4732,30.43141 3.3592,1.72086 4.83,2.22527 6.4887,2.22527 1.9845,0 2.3192,-0.18056 4.4773,-2.41551 1.2828,-1.32852 4.0569,-4.43502 6.1647,-6.90333 2.1324,-2.4972 4.3128,-4.60842 4.9157,-4.75973 0.5958,-0.14955 1.8708,-0.0131 2.8332,0.30318 1.5801,0.5193 9.4805,4.47691 14.1724,7.0994 1.0122,0.56578 3.7037,2.01806 5.9812,3.22731 5.781,3.06943 6.2113,3.52229 6.2113,6.53615 0,3.49352 -1.6987,9.83037 -3.3921,12.6542 -0.7914,1.31963 -2.6812,3.40546 -4.1995,4.63519 -3.0272,2.4518 -9.8565,5.93507 -13.1127,6.68814 -3.2206,0.7448 -8.2176,0.97202 -11.5024,0.523 z"
     id="path2" /></svg>
