<?xml version="1.0" encoding="UTF-8" standalone="no"?>
<!-- Created with Inkscape (http://www.inkscape.org/) -->

<svg
   width="26.722919mm"
   height="26.642872mm"
   viewBox="0 0 26.722919 26.642872"
   version="1.1"
   id="svg1"
   xml:space="preserve"
   sodipodi:docname="uae_tax.svg"
   inkscape:version="1.4 (e7c3feb1, 2024-10-09)"
   xmlns:inkscape="http://www.inkscape.org/namespaces/inkscape"
   xmlns:sodipodi="http://sodipodi.sourceforge.net/DTD/sodipodi-0.dtd"
   xmlns="http://www.w3.org/2000/svg"
   xmlns:svg="http://www.w3.org/2000/svg"><sodipodi:namedview
     id="namedview1"
     pagecolor="#ffffff"
     bordercolor="#000000"
     borderopacity="0.25"
     inkscape:showpageshadow="2"
     inkscape:pageopacity="0.0"
     inkscape:pagecheckerboard="0"
     inkscape:deskcolor="#d1d1d1"
     inkscape:document-units="mm"
     inkscape:zoom="1.7977413"
     inkscape:cx="25.587664"
     inkscape:cy="68.141061"
     inkscape:window-width="1760"
     inkscape:window-height="1186"
     inkscape:window-x="198"
     inkscape:window-y="169"
     inkscape:window-maximized="0"
     inkscape:current-layer="layer1" /><defs
     id="defs1" /><g
     inkscape:label="Layer 1"
     inkscape:groupmode="layer"
     id="layer1"
     transform="translate(-91.595168,-71.93868)"><g
       id="g4"
       transform="translate(-50.333994,-1.9132805)"><g
         id="g1"
         transform="translate(7.6531219,-61.224975)"><path
           style="fill:#eb111a"
           d="m 146.53378,161.2677 c -0.92679,-0.4148 -1.12692,-0.43352 -1.24847,-0.11678 -0.0796,0.20747 -0.32249,0.37721 -0.53973,0.37721 -0.45785,0 -0.48366,-0.0892 -2.16239,-7.47448 -0.68637,-3.01956 -1.33525,-5.4901 -1.44195,-5.4901 -0.51604,0 -0.37263,1.12802 0.78461,6.17154 0.68881,3.00197 1.1664,5.59723 1.06132,5.76726 -0.54133,0.87589 -0.99344,-0.20955 -2.0986,-5.03841 -0.93983,-4.10644 -1.22176,-4.99623 -1.49611,-4.72187 -0.27435,0.27435 -0.16012,1.10314 0.60622,4.39818 0.6632,2.85156 0.86107,4.14333 0.66474,4.33966 -0.31527,0.31527 -1.09742,-0.18274 -1.09334,-0.69616 0.001,-0.16408 -0.30896,-1.6419 -0.68946,-3.28405 -0.5486,-2.3676 -0.76274,-2.92687 -1.03438,-2.70143 -0.28005,0.23242 -0.27666,0.55999 0.0186,1.7951 0.51213,2.14249 0.48514,2.70143 -0.13043,2.70143 -0.40445,0 -0.57191,-0.29626 -0.80666,-1.42706 -0.2446,-1.17823 -0.37991,-1.40519 -0.77602,-1.3016 -1.32579,0.3467 -0.62081,-0.8861 3.34731,-5.8534 3.6378,-4.55382 4.226,-5.17628 4.8914,-5.17628 h 0.75636 l -1.4703,1.81976 -1.4703,1.81977 0.4129,1.81826 c 0.22709,1.00004 0.47841,2.03766 0.55847,2.30583 0.13055,0.43724 5.20968,3.05926 11.14069,5.7512 1.24349,0.56439 1.65364,0.88455 1.65364,1.29078 0,0.29713 -0.16371,0.54024 -0.36379,0.54024 -0.20009,0 -2.9506,-1.25016 -6.11225,-2.77813 -3.16165,-1.52797 -5.78476,-2.77812 -5.82914,-2.77812 -0.0444,0 -0.0257,0.21008 0.0414,0.46684 0.0786,0.30046 1.93218,1.33624 5.20075,2.90612 3.85981,1.85385 5.09896,2.56729 5.16322,2.97273 0.05,0.31547 -0.0629,0.53347 -0.27631,0.53347 -0.19848,0 -2.32012,-0.95203 -4.71476,-2.11562 -2.39464,-1.1636 -4.44319,-2.1161 -4.55233,-2.11667 -0.10915,-5.7e-4 -0.19844,0.15887 -0.19844,0.35431 0,0.19597 1.66136,1.15141 3.70416,2.13024 2.88808,1.38385 3.70417,1.88848 3.70417,2.29048 0,0.28358 -0.12805,0.5156 -0.28455,0.5156 -0.1565,0 -1.66219,-0.65485 -3.34598,-1.45521 -1.68379,-0.80037 -3.10356,-1.45521 -3.15504,-1.45521 -0.0515,0 -0.0936,0.18151 -0.0936,0.40336 0,0.2373 0.73527,0.7547 1.78594,1.25677 2.50437,1.19671 2.39932,2.37821 -0.11153,1.25444 z m -11.80762,-8.90265 c -0.3878,-0.3878 -0.50912,-0.219 6.31212,-8.78235 0.0377,-0.0473 0.39029,-0.0473 0.78353,0 0.68691,0.0827 0.57788,0.25749 -2.77649,4.45168 -3.34519,4.18271 -3.90541,4.74442 -4.31916,4.33067 z m -0.45012,-2.97387 c 0,-0.27241 0.96347,-1.70116 2.14105,-3.175 1.83834,-2.30085 2.25078,-2.67972 2.9171,-2.67972 0.75986,0 0.72291,0.0662 -1.77254,3.175 -2.45362,3.0567 -3.28561,3.73527 -3.28561,2.67972 z m 0.19293,-3.27503 c -0.0637,-0.1819 0.24425,-0.83674 0.68426,-1.45521 0.63208,-0.88843 0.96402,-1.12448 1.58131,-1.12448 0.58339,0 0.7173,0.0838 0.52865,0.33073 -2.00175,2.62047 -2.51859,3.03646 -2.79422,2.24896 z"
           id="path3" /><path
           style="fill:#099146"
           d="m 151.33842,145.26888 -1.31967,-1.70716 -7.27604,-0.0788 c -7.0734,-0.0766 -7.27604,-0.0935 -7.27604,-0.60794 0,-0.51339 0.19997,-0.53127 6.7093,-0.59991 5.89373,-0.0622 6.66973,-0.11843 6.38375,-0.46302 -0.26953,-0.32477 -1.32168,-0.39227 -6.11399,-0.39227 -5.61205,0 -5.78844,-0.0161 -5.78844,-0.52917 0,-0.5115 0.17639,-0.52917 5.28336,-0.52917 4.58762,0 5.26331,-0.0523 5.13107,-0.39687 -0.12647,-0.32959 -0.86045,-0.39688 -4.32901,-0.39688 -3.30443,0 -4.20594,-0.0762 -4.31664,-0.36463 -0.2976,-0.77552 0.44103,-0.95828 3.87278,-0.95828 3.00917,0 3.37958,-0.0476 3.08969,-0.39688 -0.23885,-0.2878 -0.8712,-0.39687 -2.30075,-0.39687 -1.73465,0 -1.96081,-0.0556 -1.88336,-0.46303 0.068,-0.35785 0.40296,-0.48118 1.47461,-0.54299 1.17042,-0.0675 1.38658,-0.16031 1.38658,-0.59531 0,-1.29531 1.07312,-0.3287 4.63021,4.17064 2.03729,2.57696 3.89867,4.88468 4.13639,5.12827 0.40835,0.41844 0.40581,1.82742 -0.003,1.82742 -0.094,0 -0.7647,-0.76823 -1.49051,-1.70717 z m -1.31967,-4.80176 c -1.89177,-2.37225 -3.47763,-4.55737 -3.52413,-4.8558 -0.2002,-1.28481 0.90867,-0.30828 4.01176,3.53298 2.96975,3.6762 3.27572,4.15206 3.12218,4.85581 -0.16422,0.75267 -0.29164,0.62796 -3.60981,-3.53299 z m 3.59583,1.41975 c -0.2051,-0.33025 -1.30643,-1.75409 -2.44739,-3.16409 -1.14097,-1.40999 -2.07448,-2.74945 -2.07448,-2.97656 0,-1.03369 1.06328,-0.23695 3.08647,2.31277 1.96804,2.48021 2.14475,2.79861 1.98437,3.5755 -0.17601,0.85264 -0.17614,0.8527 -0.54897,0.25238 z m 0.79688,-1.95496 c -0.0149,-0.16289 -0.50334,-0.89431 -1.08542,-1.62537 -0.58208,-0.73107 -1.05833,-1.52053 -1.05833,-1.75436 0,-0.71464 0.88742,-0.47411 1.60401,0.43476 1.00006,1.26839 1.01818,1.32214 0.7831,2.32164 -0.11896,0.50572 -0.22847,0.78623 -0.24336,0.62333 z"
           id="path2"
           sodipodi:nodetypes="ccsscsssssscsssssssssccsssssssssssssssss" /></g><path
         style="fill:#202022"
         d="m 155.18668,157.43167 c -0.63276,-0.33864 -0.62648,-0.34756 0.72613,-1.03298 0.75041,-0.38027 1.60647,-0.69139 1.90235,-0.69139 0.96167,0 0.57017,0.76851 -0.72613,1.42539 -1.10157,0.55822 -1.34614,0.59665 -1.90235,0.29898 z m -2.38758,-1.06172 c -0.6025,-0.32245 -0.45083,-0.42712 3.02072,-2.08459 2.01029,-0.9598 3.75986,-1.68033 3.88794,-1.60117 0.62937,0.38897 -0.0335,0.91662 -3.02072,2.4046 -2.94711,1.46799 -3.31334,1.58867 -3.88794,1.28116 z m -2.37581,-1.18149 c -0.21407,-0.13538 -0.33313,-0.28961 -0.26459,-0.34273 0.0685,-0.0531 2.29767,-1.14384 4.95361,-2.42382 4.44081,-2.14015 5.62206,-2.50529 5.62206,-1.73783 0,0.28516 -9.06247,4.76223 -9.62422,4.75458 -0.16371,-0.002 -0.4728,-0.11482 -0.68686,-0.2502 z m -2.11667,-1.05831 c -0.48907,-0.3093 -0.50971,-0.29238 1.71599,-1.40649 l 1.85594,-0.92901 1.53299,-6.83502 c 0.84314,-3.75926 1.67384,-6.92208 1.84601,-7.02848 0.85054,-0.52567 0.74847,0.58056 -0.6024,6.52875 -0.77744,3.42326 -1.32527,6.31237 -1.2174,6.42024 0.43048,0.43048 0.88178,-0.8977 1.99316,-5.86587 0.63894,-2.85624 1.31829,-5.32312 1.50967,-5.48194 0.76546,-0.63528 0.6658,0.78103 -0.38143,5.42082 -0.59485,2.63551 -1.035,4.83839 -0.97811,4.89527 0.47046,0.47046 0.92526,-0.63286 1.71436,-4.15889 0.54029,-2.41427 1.0331,-4.0406 1.24953,-4.12365 0.67266,-0.25812 0.65789,0.6493 -0.0624,3.83544 -0.39642,1.75354 -0.65012,3.25889 -0.56377,3.34524 0.37116,0.37116 0.88718,-0.55185 1.20641,-2.15792 0.2872,-1.44487 0.43158,-1.72924 0.87799,-1.72924 0.47313,0 0.51532,0.11844 0.36873,1.0352 -0.091,0.56936 -0.23206,1.20856 -0.31337,1.42044 -0.0927,0.24148 0.0552,0.43833 0.39631,0.52753 0.29927,0.0783 0.54413,0.28148 0.54413,0.45159 0,0.26884 -11.59661,6.09696 -12.11008,6.08619 -0.10618,-0.002 -0.36819,-0.11482 -0.58226,-0.2502 z"
         id="path1"
         transform="translate(7.6531219,-61.224975)"
         sodipodi:nodetypes="sssssssssssssscssscssssscscsssssscscscs" /></g></g></svg>
